<svg width="48" height="48" viewBox="0 0 48 48" fill="none" xmlns="http://www.w3.org/2000/svg">
<path d="M34.336 16H26L27.612 6.33C27.66 6.0433 27.6449 5.74959 27.5677 5.46932C27.4906 5.18905 27.3533 4.92897 27.1654 4.70718C26.9775 4.48539 26.7435 4.30722 26.4797 4.18509C26.2159 4.06296 25.9287 3.9998 25.638 4H15.334C14.8609 4.00014 14.4031 4.168 14.0421 4.47376C13.681 4.77951 13.4401 5.20336 13.362 5.67L10.028 25.67C9.98006 25.9565 9.99513 26.2501 10.0721 26.5302C10.1492 26.8103 10.2863 27.0703 10.474 27.2921C10.6616 27.5138 10.8954 27.692 11.1589 27.8143C11.4225 27.9365 11.7095 27.9999 12 28H20V44L36.02 19.082C36.2144 18.7797 36.3238 18.4307 36.3367 18.0715C36.3495 17.7124 36.2654 17.3564 36.093 17.041C35.9207 16.7256 35.6666 16.4625 35.3574 16.2793C35.0482 16.0961 34.6954 15.9997 34.336 16Z" fill="black"/>
</svg>
