<svg width="48" height="48" viewBox="0 0 48 48" fill="none" xmlns="http://www.w3.org/2000/svg">
<path d="M40.86 11.52L24.86 4.4C24.6021 4.28409 24.3227 4.22417 24.04 4.22417C23.7573 4.22417 23.4778 4.28409 23.22 4.4L7.21998 11.52C6.87215 11.6763 6.57627 11.9288 6.3672 12.2477C6.15814 12.5666 6.0446 12.9387 6.03998 13.32C6.03998 18.06 6.91998 34.92 23.06 43.54C23.364 43.7155 23.7089 43.8079 24.06 43.8079C24.4111 43.8079 24.7559 43.7155 25.06 43.54C41.06 34.94 42.22 18.12 42.2 13.34C42.1862 12.9369 42.0508 12.5474 41.8117 12.2226C41.5726 11.8978 41.2408 11.6529 40.86 11.52ZM32 25.52H26V31.52H22V25.52H16V21.52H22V15.52H26V21.52H32V25.52Z" fill="black"/>
</svg>
